<svg xmlns="http://www.w3.org/2000/svg" width="256" height="256"><path fill="#1976D2" fill-opacity=".016" fill-rule="evenodd" d="M0 128.004v128.004l128.25-.254 128.25-.254.254-127.75L257.008 0H0v128.004m.485.496c0 70.4.119 99.053.265 63.672.146-35.38.146-92.98 0-128C.604 29.153.485 58.1.485 128.5"/><path fill="#1976D2" fill-opacity=".155" fill-rule="evenodd" d="M159.481 1.394c-4.283 1.866-9.199 7.848-10.553 12.843-1.378 5.084-.606 15.558 1.437 19.485 3.705 7.123 10.294 10.287 21.353 10.256 15.831-.045 23.301-7.426 23.254-22.978-.026-8.951-5.13-17.232-12.287-19.936-3.936-1.488-19.542-1.266-23.204.33m-84.123 40.56c-5.263 1.255-10.309 5.03-12.522 9.367-2.954 5.791-3.544 15.22-1.368 21.872l1.734 5.301-4.672 4.229c-4.639 4.2-4.69 4.218-7.307 2.504-3.651-2.392-20.365-2.421-24.723-.043-3.947 2.154-8.112 6.626-9.436 10.131-1.374 3.637-1.374 16.733 0 20.37 2.847 7.535 10.931 12.259 21.037 12.293 10.874.036 18.14-3.611 21.908-10.996 2.461-4.824 2.779-17.557.547-21.874-1.408-2.722-1.324-2.912 3.312-7.478l4.756-4.685 3.656 1.528c5.231 2.185 17.138 1.975 22.359-.396l4.138-1.88 4.256 4.337 4.256 4.337-1.644 3.465c-2.323 4.896-2.243 18.068.138 22.739l1.783 3.497-5.033 4.554c-4.833 4.374-5.152 4.503-8.033 3.259-4.626-1.997-18.197-1.706-23.041.495-8.332 3.784-12.042 11.523-11.204 23.369.836 11.809 7.508 18.375 19.804 19.49 12.653 1.147 23.309-4.903 25.957-14.739 1.498-5.564.636-16.356-1.576-19.732-1.581-2.413-1.514-2.543 3.704-7.216 5.21-4.667 5.375-4.733 8.552-3.406 4.511 1.885 16.34 1.723 21.376-.292l4.113-1.645 4.942 4.941 4.941 4.942-1.534 3.672c-.933 2.234-1.533 6.718-1.532 11.454.001 9.176 1.655 13.166 7.338 17.711 3.6 2.879 4.45 3.092 13.571 3.409 7.179.25 10.71-.071 13.464-1.221l3.732-1.56 4.419 4.074 4.42 4.074-1.705 3.147c-2.407 4.447-2.402 18.863.009 23.552.962 1.872 1.75 3.689 1.75 4.038 0 .349-2.014 2.318-4.475 4.375l-4.474 3.74-5.06-1.655c-7.677-2.511-19.602-1.587-24.917 1.931-5.991 3.964-8.074 8.838-8.074 18.893 0 9.916 1.696 13.849 7.857 18.216 3.677 2.607 5.171 2.991 13.085 3.37 7.728.369 9.553.127 13.523-1.795 2.524-1.222 5.815-3.827 7.312-5.79 2.398-3.142 2.765-4.619 3.072-12.393.195-4.93-.146-10.246-.773-12.045-1.077-3.089-.927-3.414 3.711-8.052 4.449-4.45 5.05-4.749 7.588-3.785 4.22 1.605 18.098 1.295 22.393-.5 8.275-3.457 12.243-10.009 12.21-20.162-.036-11.128-5.016-18.818-13.759-21.246-5.201-1.444-15.978-1.22-20.603.428l-3.884 1.385-4.519-4.27c-4.366-4.125-4.48-4.382-3.366-7.578 1.744-5.003 1.469-18.498-.454-22.216l-1.607-3.107 5.342-4.709c4.791-4.225 5.625-4.611 8.096-3.749 1.515.528 7.183.805 12.596.616 9.041-.316 10.149-.579 13.62-3.228 5.138-3.923 7.521-9.524 7.494-17.616-.053-15.881-6.452-21.936-23.224-21.978-10.63-.027-15.341 1.953-19.459 8.175-2.495 3.77-2.751 5.002-2.747 13.23.003 6.627.459 9.907 1.694 12.166l1.69 3.092-4.908 4.834c-4.54 4.473-5.101 4.747-7.482 3.662-4.162-1.896-12.584-2.465-18.498-1.249-3.025.621-5.985 1.229-6.578 1.349-.593.121-3.399-1.88-6.235-4.446l-5.156-4.666 1.485-3.552c2.122-5.079 1.967-18.151-.268-22.59-2.758-5.479-9.198-9.752-15.978-10.6-5.253-.658-13.236.212-18.953 2.064-1.695.549-3.101-.152-6.302-3.142l-4.119-3.849 1.624-3.248c4.177-8.353 2.674-21.686-3.118-27.65-5.385-5.545-16.431-7.94-26.044-5.648"/><path fill="#1976D2" fill-opacity=".26" fill-rule="evenodd" d="M160.03 1.583C151.937 5.094 149 10.601 149 22.264c0 7.466.302 8.82 2.865 12.862 3.688 5.815 8.52 8.173 17.802 8.687 11.394.631 18.663-2.619 22.447-10.037 1.747-3.424 2.016-5.489 1.728-13.247-.31-8.318-.616-9.548-3.226-12.968C186.45 2.102 181.194.04 171.5.061c-4.883.011-9.352.604-11.47 1.522M70.804 44.041c-2.033 1.073-4.958 3.605-6.5 5.625-2.518 3.299-2.839 4.61-3.146 12.875-.255 6.858.049 9.959 1.194 12.173 1.526 2.951 1.505 3.002-3.22 7.656l-4.756 4.685-3.656-1.528c-5.371-2.244-19.059-2.01-24.404.416-6.423 2.917-9.704 8.612-10.16 17.633-.574 11.365 2.34 17.596 10.074 21.541 3.444 1.758 5.487 2.012 13.835 1.722 10.812-.374 12.676-1.202 18.275-8.121 2.52-3.113 3.023-4.727 3.407-10.935.306-4.937-.031-8.665-1.045-11.575l-1.497-4.292 4.648-4.466c3.385-3.254 5.19-4.311 6.647-3.891 7.387 2.13 10.687 2.551 15.897 2.03 3.243-.324 7.268-1.273 8.945-2.11 3.027-1.51 3.08-1.488 7.782 3.143 4.688 4.617 4.718 4.689 3.055 7.227-2.391 3.649-2.362 19.387.044 23.793l1.716 3.141-5.02 4.696c-3.591 3.359-5.504 4.494-6.72 3.985-6.646-2.779-19.803-2.77-25.135.017-2.955 1.545-7.31 6.027-8.942 9.203-1.425 2.774-1.463 17.285-.055 21.001C64.951 167.297 71.848 171 83.144 171c10.577 0 15.841-2.331 19.969-8.84 2.55-4.02 2.887-5.467 2.887-12.388 0-4.781-.598-9.268-1.534-11.508l-1.534-3.672 4.981-4.981c4.637-4.637 5.16-4.899 7.581-3.796 1.43.652 6.647 1.185 11.593 1.185 6.977 0 9.859-.442 12.858-1.972 7.641-3.898 10.556-10.314 9.83-21.636C148.897 89.709 142.237 84 127.152 84c-5.122 0-9.599.578-11.887 1.534l-3.671 1.534-4.451-4.451-4.45-4.45 1.749-3.686c1.358-2.862 1.672-5.638 1.404-12.414-.309-7.799-.653-9.128-3.23-12.506-4.24-5.555-9.386-7.522-19.616-7.495-6.47.017-9.383.489-12.196 1.975"/><path fill="#1976D2" fill-opacity=".165" fill-rule="evenodd" d="M161.655 1.459C153.399 4.403 149.044 11.496 149.044 22c0 8.094 2.394 13.706 7.516 17.616 3.502 2.674 4.512 2.905 13.859 3.179 11.621.34 14.981-.844 19.908-7.012 2.524-3.159 3.039-4.809 3.432-11 .254-4.006-.042-9.147-.658-11.425-1.362-5.038-7.327-10.772-12.78-12.286-5.225-1.451-14.024-1.268-18.666.387M74.479 42.871c-4.473 1.159-8.171 3.895-10.62 7.856-3.09 5.001-3.767 16.607-1.339 22.964l1.784 4.671-4.839 4.319C56.803 85.056 54.315 87 53.935 87c-.38 0-2.306-.675-4.281-1.5-5.114-2.137-17.107-1.932-22.195.38-8.107 3.682-12.123 11.701-11.171 22.305.621 6.918 3.607 12.518 8.44 15.832 3.04 2.085 5.034 2.539 12.427 2.832 7.484.296 9.488.018 13.352-1.853 2.501-1.21 5.773-3.807 7.27-5.77 2.33-3.056 2.775-4.721 3.086-11.55.202-4.45-.168-9.749-.836-11.98l-1.199-4.001 4.89-4.89c4.856-4.855 4.911-4.879 7.836-3.353 4.091 2.133 18.088 2.075 23.517-.097l4.112-1.645 4.442 4.442 4.443 4.442-1.534 3.671c-2.125 5.085-2.052 18.581.125 23.145l1.658 3.478-4.908 4.559c-3.938 3.657-5.404 4.443-7.409 3.972-5.458-1.283-18.461-1.597-22.016-.532-8.721 2.613-12.926 9.279-12.962 20.547-.043 13.635 6.151 20.496 19.257 21.329 12.207.775 19.543-2.573 23.765-10.849 2.62-5.137 2.636-15.82.031-21.557l-1.881-4.143 5.436-4.693c5.102-4.405 5.628-4.627 8.552-3.607 5.519 1.924 18.618 1.361 23.516-1.01 6.818-3.3 9.302-8.452 9.302-19.292 0-11.722-2.666-16.486-11.232-20.064-4.88-2.039-16.562-2.015-21.711.046-3.775 1.51-4.13 1.489-6.771-.402-1.532-1.098-3.795-3.078-5.027-4.4l-2.242-2.403 2.052-3.944c3.025-5.817 2.459-18.595-1.052-23.716-3.836-5.597-9.072-8.033-17.968-8.362-4.152-.153-8.908.074-10.57.504"/></svg>